<svg width="31" height="46" viewBox="0 0 31 46" fill="none" xmlns="http://www.w3.org/2000/svg">
<path d="M3.69717 9.45051L23.6916 2.50683C25.1246 2.37542 25.3791 2.95278 25.3648 4.51464V9.45051M3.69717 9.45051H25.3648M3.69717 9.45051C2.01842 9.90676 1.93401 10.6549 2.02399 12.1276V39.9024C2.17149 42.9585 3.12522 43.6107 5.8723 43.4997H26.1178C28.8214 43.4213 29.4762 42.5784 29.3805 39.9024V12.1276C29.3738 10.2872 28.996 9.62233 27.289 9.45051H25.3648" stroke="white" stroke-width="3"/>
<mask id="path-2-inside-1" fill="white">
<path fill-rule="evenodd" clip-rule="evenodd" d="M22.8475 29.5434C23.4005 28.3533 22.0517 27.3594 20.7394 27.3594C17.0432 27.3594 14.0467 24.3629 14.0467 20.6666C14.0467 19.6638 13.2017 18.7187 12.2988 19.1553C9.66953 20.4265 7.85596 23.1192 7.85596 26.2354C7.85596 30.5763 11.3749 34.0952 15.7157 34.0952C18.8748 34.0952 21.5986 32.2314 22.8475 29.5434Z"/>
</mask>
<path d="M22.8475 29.5434L20.1269 28.2794L22.8475 29.5434ZM20.7394 24.3594C18.7 24.3594 17.0467 22.7061 17.0467 20.6666H11.0467C11.0467 26.0198 15.3863 30.3594 20.7394 30.3594V24.3594ZM10.856 26.2354C10.856 24.3131 11.9719 22.6456 13.6047 21.8561L10.993 16.4544C7.3672 18.2074 4.85596 21.9253 4.85596 26.2354H10.856ZM15.7157 31.0952C13.0317 31.0952 10.856 28.9194 10.856 26.2354H4.85596C4.85596 32.2331 9.71804 37.0952 15.7157 37.0952V31.0952ZM20.1269 28.2794C19.3515 29.9482 17.6645 31.0952 15.7157 31.0952V37.0952C20.0852 37.0952 23.8458 34.5147 25.5682 30.8075L20.1269 28.2794ZM17.0467 20.6666C17.0467 19.3834 16.5265 18.0951 15.5745 17.1933C14.5319 16.2056 12.782 15.5894 10.993 16.4544L13.6047 21.8561C13.2514 22.0269 12.8009 22.0988 12.342 22.0034C11.9137 21.9143 11.6186 21.7106 11.4481 21.5491C11.1444 21.2613 11.0467 20.947 11.0467 20.6666H17.0467ZM20.7394 30.3594C20.7206 30.3594 20.6384 30.3753 20.4625 30.2136C20.3534 30.1133 20.1441 29.8755 20.0365 29.4701C19.9174 29.0219 19.9831 28.5887 20.1269 28.2794L25.5682 30.8075C25.9884 29.9032 26.0929 28.8994 25.8355 27.9301C25.5894 27.0036 25.0646 26.2942 24.5233 25.7966C23.4833 24.8404 22.0705 24.3594 20.7394 24.3594V30.3594Z" fill="white" mask="url(#path-2-inside-1)"/>
</svg>
